#!OML:ASF X:\für Bonn\!DataBase\2005_08_10_Bjorn_Final\c3d\bjorn.ASF
:FULLY-SPECIFIED
:DEGREES
122
root 0.18454 14.5475 2.85749 -179.659 -2.97182 179.801
lowerback 15.4266 1.55797 2.67786
upperback 11.4749 0.295506 -0.72984
thorax 3.62736 -0.521544 -2.36157
lowerneck -23.0872 -4.56875 -0.0219377
upperneck 3.22314 -6.83311 2.62517
head 4.65976 -3.38923 0.115392
rclavicle -9.73424e-015 3.29237e-015
rhumerus 79.0753 -4.23495 -67.824
rradius 10.1595
rwrist 44.8997
rhand -14.2078 12.5657
rfingers 7.12502
rthumb 11.9288 -17.0745
lclavicle -9.73424e-015 3.29237e-015
lhumerus 80.6441 -4.85404 42.843
lradius 15.5664
lwrist -31.7024
lhand -16.2989 -5.73899
lfingers 7.12502
lthumb 9.91175 24.0077
rfemur -53.4963 -15.2257 13.7355
rtibia 100.443
rfoot -29.9003 18.1666
rtoes -29.654
lfemur -51.1946 5.7722 -18.3173
ltibia 104.187
lfoot -26.5317 -7.31987
ltoes -32.3343
123
root 0.174788 14.7758 2.80875 -179.66 -2.97244 179.833
lowerback 14.7444 1.52828 2.6336
upperback 11.3196 0.321641 -0.72721
thorax 3.81455 -0.476124 -2.33315
lowerneck -22.9194 -4.53152 -0.0559779
upperneck 3.60536 -6.73638 2.57736
head 4.75556 -3.32241 0.114234
rclavicle -3.75206e-015 -2.19906e-015
rhumerus 79.0921 -4.13785 -67.9971
rradius 10.2182
rwrist 44.4899
rhand -14.1835 12.4285
rfingers 7.12502
rthumb 11.9521 -17.2103
lclavicle -3.75206e-015 -2.19906e-015
lhumerus 80.5884 -4.90535 43.2061
lradius 15.5938
lwrist -32.4402
lhand -16.4325 -5.74766
lfingers 7.12502
lthumb 9.78286 24.0051
rfemur -51.8826 -15.0033 13.783
rtibia 98.1516
rfoot -29.3911 18.1532
rtoes -29.0374
lfemur -49.6264 5.4946 -18.329
ltibia 101.88
lfoot -26.3771 -7.08951
ltoes -32.1945
124
root 0.16512 15.0045 2.75998 -179.631 -2.97302 179.847
lowerback 14.0317 1.50961 2.58363
upperback 11.155 0.364657 -0.735872
thorax 4.01124 -0.420879 -2.31445
lowerneck -22.7242 -4.50853 -0.103031
upperneck 3.98448 -6.65807 2.55801
head 4.84808 -3.26361 0.122836
rclavicle -8.43592e-015 1.11319e-014
rhumerus 79.0566 -4.04683 -68.0685
rradius 10.258
rwrist 43.8831
rhand -14.2739 12.1467
rfingers 7.12502
rthumb 11.865 -17.4971
lclavicle -8.43592e-015 1.11319e-014
lhumerus 80.5366 -4.9975 43.6211
lradius 15.6198
lwrist -33.3094
lhand -16.6187 -5.7268
lfingers 7.12502
lthumb 9.60321 24.0343
rfemur -50.2962 -14.8169 13.8168
rtibia 95.8184
rfoot -28.838 18.1414
rtoes -28.3199
lfemur -48.0776 5.26436 -18.3698
ltibia 99.5239
lfoot -26.1647 -6.82385
ltoes -32.1224
125
root 0.155924 15.235 2.71068 -179.555 -2.97772 179.879
lowerback 13.2851 1.47754 2.52648
upperback 10.9551 0.398033 -0.72416
thorax 4.18893 -0.368643 -2.26788
lowerneck -22.5364 -4.49568 -0.189909
upperneck 4.43639 -6.58253 2.55188
head 4.96655 -3.20347 0.140385
rclavicle -1.2424e-016 -2.95692e-015
rhumerus 78.9737 -3.9005 -68.1264
rradius 10.287
rwrist 43.241
rhand -14.4418 11.8227
rfingers 7.12502
rthumb 11.7031 -17.8304
lclavicle -1.2424e-016 -2.95692e-015
lhumerus 80.4017 -5.12008 44.0668
lradius 15.6703
lwrist -34.2693
lhand -16.8138 -5.65518
lfingers 7.12502
lthumb 9.41503 24.1145
rfemur -48.7642 -14.6447 13.8992
rtibia 93.4326
rfoot -28.2873 18.0496
rtoes -27.8446
lfemur -46.5647 5.06599 -18.3877
ltibia 97.1135
lfoot -25.9182 -6.66349
ltoes -31.7653
126
root 0.146423 15.4659 2.66127 -179.411 -2.99108 179.893
lowerback 12.4783 1.44739 2.48536
upperback 10.7212 0.445374 -0.744306
thorax 4.36669 -0.30341 -2.26359
lowerneck -22.2549 -4.48904 -0.260595
upperneck 4.86753 -6.52143 2.56755
head 5.06496 -3.14999 0.163241
rclavicle 5.81445e-015 -4.99446e-015
rhumerus 78.7976 -3.80055 -68.3545
rradius 10.3769
rwrist 42.7831
rhand -14.5502 11.5231
rfingers 7.12502
rthumb 11.5985 -18.1359
lclavicle 5.81445e-015 -4.99446e-015
lhumerus 80.2841 -5.31403 44.4926
lradius 15.7282
lwrist -35.0942
lhand -16.8924 -5.58635
lfingers 7.12502
lthumb 9.33916 24.1868
rfemur -47.3053 -14.5254 13.9677
rtibia 91.0115
rfoot -27.7068 17.9777
rtoes -27.2827
lfemur -45.1043 4.87787 -18.4325
ltibia 94.6463
lfoot -25.6155 -6.55025
ltoes -31.2421
127
root 0.138379 15.698 2.61153 -179.229 -3.01226 179.906
lowerback 11.6365 1.40538 2.42082
upperback 10.4742 0.476337 -0.757419
thorax 4.55071 -0.247462 -2.23631
lowerneck -21.9603 -4.46309 -0.301485
upperneck 5.3002 -6.44279 2.55603
head 5.15945 -3.09069 0.175127
rclavicle -1.06847e-015 9.44227e-015
rhumerus 78.5867 -3.66692 -68.6045
rradius 10.5525
rwrist 42.3067
rhand -14.378 11.3135
rfingers 7.12502
rthumb 11.7646 -18.3361
lclavicle -1.06847e-015 9.44227e-015
lhumerus 80.1058 -5.49683 44.8308
lradius 15.8631
lwrist -35.5689
lhand -16.8123 -5.58609
lfingers 7.12502
lthumb 9.41644 24.1836
rfemur -45.8741 -14.4175 14.0535
rtibia 88.5369
rfoot -27.0667 17.9215
rtoes -26.6967
lfemur -43.6775 4.72769 -18.4705
ltibia 92.1201
lfoot -25.2596 -6.50212
ltoes -30.5969
128
root 0.130503 15.9315 2.56135 -179.014 -3.02304 179.904
lowerback 10.7985 1.36999 2.34484
upperback 10.1755 0.525483 -0.781729
thorax 4.6809 -0.180426 -2.21409
lowerneck -21.5721 -4.45696 -0.367176
upperneck 5.77178 -6.38531 2.57271
head 5.25407 -3.03941 0.199068
rclavicle -2.13694e-015 7.45443e-016
rhumerus 78.2752 -3.55613 -69.0209
rradius 10.7853
rwrist 41.9381
rhand -13.8856 11.1361
rfingers 7.12502
rthumb 12.2394 -18.4858
lclavicle -2.13694e-015 7.45443e-016
lhumerus 79.8934 -5.78103 45.1851
lradius 15.9835
lwrist -35.7722
lhand -16.7985 -5.58812
lfingers 7.12502
lthumb 9.4298 24.1809
rfemur -44.4784 -14.3347 14.1337
rtibia 86.0223
rfoot -26.4915 17.7206
rtoes -26.5128
lfemur -42.2729 4.61564 -18.5208
ltibia 89.5366
lfoot -24.8095 -6.61987
ltoes -29.3862
129
root 0.123212 16.1661 2.51161 -178.8 -3.05133 179.899
lowerback 9.96992 1.3242 2.25909
upperback 9.86574 0.558684 -0.795912
thorax 4.79639 -0.123577 -2.17397
lowerneck -21.1279 -4.44029 -0.442271
upperneck 6.22183 -6.3125 2.57116
head 5.33212 -2.98485 0.221867
rclavicle -1.11319e-014 5.96354e-015
rhumerus 77.8979 -3.42266 -69.4524
rradius 11.1129
rwrist 41.6317
rhand -13.1866 10.9461
rfingers 7.12502
rthumb 12.9134 -18.6343
lclavicle -1.11319e-014 5.96354e-015
lhumerus 79.626 -6.0852 45.4106
lradius 16.144
lwrist -35.6955
lhand -16.83 -5.5405
lfingers 7.12502
lthumb 9.39937 24.2299
rfemur -43.0604 -14.2651 14.209
rtibia 83.4466
rfoot -25.819 17.5856
rtoes -26.1009
lfemur -40.8507 4.52243 -18.5741
ltibia 86.8835
lfoot -24.3544 -6.65175
ltoes -28.4008
130
root 0.116039 16.4008 2.46141 -178.538 -3.06115 179.915
lowerback 9.08866 1.27835 2.1878
upperback 9.54233 0.593165 -0.808475
thorax 4.93017 -0.064817 -2.13938
lowerneck -20.6346 -4.40925 -0.511333
upperneck 6.64615 -6.22759 2.57977
head 5.39379 -2.92642 0.249546
rclavicle 3.32964e-015 1.42628e-014
rhumerus 77.5097 -3.25518 -69.715
rradius 11.4317
rwrist 41.1049
rhand -12.4842 10.7402
rfingers 7.12502
rthumb 13.5904 -18.7962
lclavicle 3.32964e-015 1.42628e-014
lhumerus 79.3104 -6.37422 45.6849
lradius 16.3482
lwrist -35.589
lhand -16.6815 -5.62998
lfingers 7.12502
lthumb 9.54265 24.1339
rfemur -41.6931 -14.2045 14.326
rtibia 80.8353
rfoot -25.1355 17.3819
rtoes -25.8849
lfemur -39.496 4.4791 -18.6057
ltibia 84.188
lfoot -23.7827 -6.7578
ltoes -26.9998
